<svg width="100" height="95" viewBox="0 0 100 95" fill="none" xmlns="http://www.w3.org/2000/svg">
<g clip-path="url(#clip0_2937_410)">
<path d="M56.5837 74.5036L67.3503 85.2702C69.9544 85.3434 72.0459 87.4837 72.0459 90.1123C72.0459 92.7897 69.8812 94.9544 67.2038 94.9544C64.5264 94.9544 62.3617 92.7816 62.3617 90.1123C62.3617 89.8193 62.3861 89.5264 62.4349 89.2415L53.068 79.8828V86.7676H46.3623V80.07L36.849 89.5915C36.8652 89.7624 36.8734 89.9414 36.8734 90.1204C36.8734 92.7979 34.7087 94.9626 32.0231 94.9626C29.3457 94.9626 27.181 92.7897 27.181 90.1204C27.181 87.443 29.3538 85.2783 32.0231 85.2783C32.1045 85.2783 32.1859 85.2783 32.2591 85.2865L43.0257 74.5199L0 74.5036V12.7848C0 12.7441 0 12.7116 0 12.6709V6.11979C0 5.41178 0.585938 4.84212 1.31022 4.84212H46.3623V0H53.068V4.84212H98.6898C99.4141 4.84212 100 5.41992 100 6.11979V12.6709C100 12.6953 100 12.7116 100 12.736V74.4954H56.5837V74.5036ZM21.8831 51.0335L40.8122 32.5277C45.4997 37.2152 50.1383 41.8538 54.8747 46.5332L67.4154 33.8379L61.5967 28.0192L77.9704 27.8727V44.3848L72.3796 38.7939C66.5527 44.694 60.7503 50.5778 54.9072 56.429L40.7145 42.4154L26.8473 55.9977L21.8831 51.0335ZM92.6025 17.6839H7.25912V67.0329H92.6025V17.6839Z" fill="#FF1779"/>
</g>
<defs>
<clipPath id="clip0_2937_410">
<rect width="100" height="94.9544" fill="white"/>
</clipPath>
</defs>
</svg>
