<svg width="100" height="100" viewBox="0 0 100 100" fill="none" xmlns="http://www.w3.org/2000/svg">
<path fill-rule="evenodd" clip-rule="evenodd" d="M31.8239 4.27397C30.7495 5.33379 29.7436 6.62002 28.8063 8.12095C25.407 13.5508 22.8708 21.7815 20.9941 32.1592C9.97652 34.2359 3.17417 38.8226 3.40117 43.5069C3.6047 47.7501 8.97065 51.0037 17.0352 53.2503C16.5049 54.8859 16.6301 55.1669 17.3483 57.1792C11.3249 59.7126 5.03131 67.4066 0 74.1461L19.5753 87.3422L12.6634 99.9995H87.8904L80.5988 87.3422L100 73.9002C94.3092 65.9271 87.4384 59.1525 83.1468 57.3139C84.0528 54.9678 84.2113 54.5579 83.4521 53.2561C91.5166 50.9686 96.8043 47.6271 96.7926 43.2102C96.7808 38.3932 89.8454 33.7675 79.5108 32.1592C77.0372 21.7171 74.5753 13.4962 71.4423 8.09948C70.8728 7.11968 70.2818 6.23161 69.6634 5.44114C60.3366 -6.48821 57.0685 4.91611 50.4579 4.90244C42.7926 4.88683 41.818 -5.57672 31.8239 4.27397ZM44.9589 82.0275C44.2603 82.0275 43.6928 81.4614 43.6928 80.7646C43.6928 80.0679 44.2603 79.5018 44.9589 79.5018H47.0176C47.2877 79.5018 47.5382 79.5877 47.7417 79.7302C48.4795 80.1401 49.2016 80.3801 49.8963 80.3977C50.589 80.4153 51.2935 80.2103 52.0098 79.7243C52.2187 79.5841 52.4645 79.5088 52.7162 79.5077L55.2172 79.5018C55.9159 79.5018 56.4814 80.0679 56.4814 80.7646C56.4814 81.4614 55.9159 82.0275 55.2172 82.0275H53.0744C52.0059 82.6657 50.9256 82.9389 49.8376 82.9116C48.773 82.8843 47.728 82.5661 46.7045 82.0275H44.9589ZM31.4325 54.5501C43.2583 58.7933 55.0861 58.7231 66.9119 54.9073C55.4736 55.8344 42.8826 55.6139 31.4325 54.5501ZM72.2094 54.3823C76.2975 68.1678 58.7984 75.1689 52.2583 59.8434H47.9315C41.2544 75.122 24.0294 68.4645 27.9393 54.1949C26.5088 54.0388 25.0998 53.867 23.7202 53.6835L23.6575 54.0505L23.5421 54.7453L22.8611 58.8187C16.9139 57.5071 20.2466 72.8267 25.6517 71.48C26.4775 73.8573 27.1566 75.8949 27.8552 77.7628C35.0587 97.0523 65.2094 98.2195 72.2681 79.0041C73.0078 76.9899 73.6086 74.7805 74.4677 72.0967C79.4462 72.8892 83.5382 57.7882 77.4697 58.8968L76.8454 54.7883L76.7378 54.0759L76.6928 53.7753C75.2309 54.0017 73.7339 54.2047 72.2094 54.3823ZM24.2074 34.4174L25.6614 29.454C35.0861 37.3432 67.6556 36.1077 74.7554 29.454L75.9804 34.4174C67.7006 43.1517 33.0587 41.965 24.2074 34.4174Z" fill="#FF1779"/>
</svg>
